# xmcd
#
# Track frame offsets:
#	220
#	17625
#	36350
#	50887
#	67445
#	86100
#	117492
#	138400
#	159262
#
# Disc length: 2575 seconds
#
# Revision: 0
# Processed by: cddbd v1.5.2PL0 Copyright (c) Steve Scherf et al.
# Submitted via: audiograbber 1.83.01
#
DISCID=850a0d09
DTITLE=Clarence "Gatemouth" Brown - Real Life
DYEAR=1987
DGENRE=Blues
TTITLE0=Real Life
TTITLE1=Okie Dokie Stomp
TTITLE2=Frankie And Johnny
TTITLE3=Next Time You See Me
TTITLE4=Take The A Train
TTITLE5=Please Send Me Someone To Love
TTITLE6=Catfish
TTITLE7=St. Louis Blues
TTITLE8=What A Shame, What A Shame
EXTD=Rounder CD 2054\n\nClarence Gatemouth Brown:  guitar, violin, vocal\nLuthe
EXTD=r Wamble:  guitar\nHarold Floyd:  bass\nDan Matrazzo:  keyboards\nLloyd He
EXTD=rrman:  drums\nDennis Taylor:  tenor saxophone\nBill "Foots" Samuel:  bari
EXTD=tone and tenor saxophone
EXTT0=
EXTT1=
EXTT2=
EXTT3=
EXTT4=
EXTT5=
EXTT6=
EXTT7=
EXTT8=
PLAYORDER=
